Coordinates
version=1
nRows=14
nColumns=24
inDegrees=yes

Units are S.I. units (second, meters, Newtons, ...)
Angles are in degrees.

endheader
time	pelvis_tilt	pelvis_list	pelvis_rotation	pelvis_tx	pelvis_ty	pelvis_tz	hip_flexion_r	hip_adduction_r	hip_rotation_r	knee_angle_r	ankle_angle_r	subtalar_angle_r	mtp_angle_r	hip_flexion_l	hip_adduction_l	hip_rotation_l	knee_angle_l	ankle_angle_l	subtalar_angle_l	mtp_angle_l	lumbar_extension	lumbar_bending	lumbar_rotation
      1.99500000	     22.94182153	     -5.71807974	      7.34098136	      0.28962250	      0.85587125	      0.00950527	    -21.33862962	     12.73436217	    -19.40506978	     -4.72258928	     24.24903570	     13.36535854	     33.44941097	     -5.69743620	    -11.17328631	     -5.87695596	    -65.64159310	     18.19325560	     -0.46986537	     50.91663911	    -36.71046811	     10.50487282	     -8.85343024
      2.00000000	     22.92099600	     -5.49128094	      7.16282663	      0.29523418	      0.85640990	      0.01012780	    -21.90508637	     12.53845175	    -19.25906607	     -4.43948535	     24.41028174	     13.43826431	     33.39084786	     -5.16941255	    -10.72501159	     -6.06950722	    -64.57003073	     18.80531882	     -0.24691860	     50.88794926	    -36.74107949	     10.16674024	     -8.74578315
      2.00500000	     22.92996787	     -5.26993165	      7.01352887	      0.30090269	      0.85693576	      0.01070627	    -22.51318260	     12.36139036	    -19.20706548	     -4.13249493	     24.52776585	     13.59560711	     33.30848916	     -4.70070844	    -10.29459093	     -6.26985012	    -63.38452724	     19.43486198	     -0.07464511	     50.78890819	    -36.79098997	      9.84572817	     -8.68737150
      2.01000000	     22.95288000	     -5.04010514	      6.87112071	      0.30656890	      0.85745791	      0.01122989	    -23.13962771	     12.17342769	    -19.17252851	     -3.81639536	     24.63896712	     13.80436838	     33.18726271	     -4.27973113	     -9.84400210	     -6.45779208	    -62.07480997	     20.01498816	      0.05530795	     50.59673841	    -36.85233518	      9.52421188	     -8.62191089
      2.01500000	     22.97624501	     -4.81228177	      6.74066767	      0.31226938	      0.85793585	      0.01173725	    -23.76168767	     11.99073144	    -19.17127284	     -3.51468266	     24.76262205	     14.00776179	     33.04567807	     -3.88610133	     -9.40026130	     -6.65586975	    -60.66132135	     20.55554731	      0.13293816	     50.35025189	    -36.90386141	      9.20592300	     -8.58224846
      2.02000000	     23.01061587	     -4.58112743	      6.61498170	      0.31797806	      0.85838756	      0.01221777	    -24.39947990	     11.80628379	    -19.18500621	     -3.20008463	     24.87588469	     14.21481615	     32.88374770	     -3.53632991	     -8.95146017	     -6.85642263	    -59.14032367	     21.05874910	      0.17834981	     50.05934847	    -36.96504743	      8.88661910	     -8.54458143
      2.02500000	     23.04318032	     -4.35177635	      6.49521262	      0.32369645	      0.85880251	      0.01263912	    -25.03213233	     11.62009896	    -19.20821475	     -2.89233631	     24.98497564	     14.42207368	     32.70983011	     -3.21507285	     -8.49779473	     -7.05423377	    -57.51598761	     21.52437004	      0.19543738	     49.74651040	    -37.01982060	      8.57799683	     -8.52028923
      2.03000000	     23.05645254	     -4.11553146	      6.41312464	      0.32942533	      0.85914076	      0.01292090	    -25.59394344	     11.41656986	    -19.43282626	     -2.71658822	     25.27265571	     14.97403707	     31.45308754	     -2.89373466	     -8.01573567	     -7.18762763	    -55.81974311	     22.09379696	      0.31129648	     47.71965320	    -37.04471895	      8.28998066	     -8.53104984
      2.03500000	     23.10722627	     -3.91227711	      6.28571448	      0.33516637	      0.85947877	      0.01334783	    -26.26525985	     11.26270505	    -19.34949019	     -2.35169429	     25.32143574	     14.98915341	     31.37909315	     -2.65722168	     -7.60314341	     -7.42573442	    -54.01086236	     22.49186086	      0.35726733	     47.65625433	    -37.11208314	      7.99908342	     -8.48432628
      2.04000000	     23.16771936	     -3.68785490	      6.16936677	      0.34092486	      0.85980992	      0.01370937	    -26.92702670	     11.08371322	    -19.37064989	     -2.04292147	     25.39166964	     15.11362938	     31.29761773	     -2.47534128	     -7.15736266	     -7.64858540	    -52.08420651	     22.84045492	      0.37302948	     47.54252689	    -37.18453519	      7.69633732	     -8.46478702
      2.04500000	     23.23683209	     -3.46577644	      6.06149609	      0.34667782	      0.86009009	      0.01401053	    -27.58915649	     10.90563212	    -19.42370873	     -1.74909267	     25.48222756	     15.25472819	     31.20780700	     -2.33254411	     -6.71198159	     -7.86841706	    -50.07757023	     23.17049700	      0.41478222	     47.40649349	    -37.26681641	      7.40590539	     -8.45780690
      2.05000000	     23.31311019	     -3.24245042	      5.94856154	      0.35244417	      0.86035873	      0.01427012	    -28.25124307	     10.71875633	    -19.48489546	     -1.47709731	     25.56039751	     15.41793108	     31.09322178	     -2.24453061	     -6.25956838	     -8.09564168	    -47.96366655	     23.46891599	      0.49210296	     47.24034308	    -37.35257145	      7.11698301	     -8.44798042
      2.05500000	     23.39910953	     -3.02321483	      5.84202076	      0.35820458	      0.86057205	      0.01449568	    -28.91848409	     10.53799688	    -19.54971789	     -1.21212035	     25.65536872	     15.55358618	     30.97016204	     -2.19834106	     -5.81364822	     -8.32764644	    -45.77552832	     23.75562464	      0.62707544	     47.07126827	    -37.44825330	      6.83662451	     -8.45379192
      2.06000000	     23.49229524	     -2.81503986	      5.71436257	      0.36399970	      0.86077756	      0.01469389	    -29.58318004	     10.35037886	    -19.64187506	     -0.97735321	     25.69863402	     15.77701104	     30.76372276	     -2.21224004	     -5.37808730	     -8.61101479	    -43.48836564	     24.02623007	      0.78788549	     46.81431940	    -37.54732950	      6.56144038	     -8.44016505
